<svg width="2939" height="3969" viewBox="0 0 2939 3969" fill="none" xmlns="http://www.w3.org/2000/svg">
<path d="M2769.26 784.909C2783.83 1111.96 2804 1634.2 2804 2018.96C2804 2403.71 2783.83 2925.95 2769.26 3253C2761.44 3428.47 2622.52 3568.69 2447.12 3577.81C2173.44 3592.05 1770.93 3609.85 1469.5 3609.85C1410.97 3609.85 1469.5 3608 1284.15 3608C1098.81 3608 202.961 3297.85 161.756 3066.17C148.758 2748.26 135 2336.72 135 2018.96C135 1634.2 155.17 1111.96 169.741 784.909C177.558 609.446 316.481 469.224 491.881 460.1C765.561 445.863 1168.07 428.059 1469.5 428.059C1770.93 428.059 2173.44 445.863 2447.12 460.1C2622.52 469.224 2761.44 609.446 2769.26 784.909Z" fill="white"/>
<path d="M161.756 3066.17C148.758 2748.26 135 2336.72 135 2018.96C135 1634.2 155.17 1111.96 169.741 784.909C177.558 609.446 316.481 469.224 491.881 460.1C765.561 445.863 1168.07 428.059 1469.5 428.059C1770.93 428.059 2173.44 445.863 2447.12 460.1C2622.52 469.224 2761.44 609.446 2769.26 784.909C2783.83 1111.96 2804 1634.2 2804 2018.96C2804 2403.71 2783.83 2925.95 2769.26 3253C2761.44 3428.47 2622.52 3568.69 2447.12 3577.81C2173.44 3592.05 1770.93 3609.85 1469.5 3609.85C1410.97 3609.85 1469.5 3608 1284.15 3608M161.756 3066.17C202.961 3297.85 1098.81 3608 1284.15 3608M161.756 3066.17C230.513 2990.83 392.156 2917.6 535.449 2863.52C687.374 2806.18 853.591 2877.65 932.171 3019.75C1048.51 3230.15 1210.12 3514.43 1284.15 3608" stroke="#3C3C3C" stroke-width="270"/>
<path d="M1186.14 2907.63C1183.05 2907.63 1180.4 2906.94 1178.18 2905.57C1177.93 2905.43 1177.8 2905.24 1177.8 2905.02C1177.8 2904.85 1177.87 2904.65 1178.01 2904.43L1179.23 2902.37C1179.4 2902.08 1179.57 2901.94 1179.74 2901.94C1179.91 2901.94 1180.09 2902.03 1180.29 2902.2C1180.93 2902.65 1181.72 2903.01 1182.65 2903.29C1183.57 2903.55 1184.56 2903.67 1185.6 2903.67C1187.06 2903.67 1188.12 2903.29 1188.8 2902.53C1189.5 2901.75 1189.85 2900.57 1189.85 2898.99V2879.91C1189.85 2879.37 1189.98 2878.98 1190.23 2878.73C1190.48 2878.48 1190.89 2878.35 1191.45 2878.35H1193.64C1194.2 2878.35 1194.61 2878.48 1194.86 2878.73C1195.12 2878.98 1195.24 2879.37 1195.24 2879.91V2898.99C1195.24 2901.63 1194.49 2903.74 1192.97 2905.31C1191.45 2906.86 1189.18 2907.63 1186.14 2907.63ZM1746.12 2944.92C1560.73 2944.92 1401.46 2903.63 1268.32 2821.05C1253.15 2812.62 1245.56 2801.66 1245.56 2788.18C1245.56 2778.07 1249.78 2766.27 1258.21 2752.79L1331.52 2628.92C1341.63 2612.06 1351.74 2603.63 1361.85 2603.63C1371.97 2603.63 1382.92 2608.69 1394.72 2618.8C1433.48 2645.77 1480.67 2667.68 1536.29 2684.53C1591.91 2699.7 1650.89 2707.28 1713.25 2707.28C1800.89 2707.28 1864.94 2684.53 1905.38 2639.03C1947.52 2591.84 1968.58 2521.05 1968.58 2426.67V1281.47C1968.58 1249.45 1976.17 1225.85 1991.34 1210.68C2006.51 1195.52 2030.94 1187.93 2064.65 1187.93H2196.11C2229.82 1187.93 2254.25 1195.52 2269.42 1210.68C2284.59 1225.85 2292.17 1249.45 2292.17 1281.47V2426.67C2292.17 2585.1 2246.67 2711.5 2155.66 2805.88C2064.65 2898.57 1928.14 2944.92 1746.12 2944.92Z" fill="#325134"/>
<rect x="1518.99" y="171.662" width="105.03" height="512.794" rx="52.515" fill="black" stroke="#3C3C3C" stroke-width="105.03"/>
<rect x="2161.52" y="171.662" width="105.03" height="512.794" rx="52.515" fill="black" stroke="#3C3C3C" stroke-width="105.03"/>
<rect x="876.449" y="171.662" width="105.03" height="512.794" rx="52.515" fill="black" stroke="#3C3C3C" stroke-width="105.03"/>
<rect x="1737" y="1199.03" width="210" height="1117" rx="105" transform="rotate(90 1737 1199.03)" fill="#D3D3D3"/>
<rect x="1177" y="1604" width="210" height="557" rx="105" transform="rotate(90 1177 1604)" fill="#D3D3D3"/>
<rect x="1404" y="2019" width="210" height="784" rx="105" transform="rotate(90 1404 2019)" fill="#D3D3D3"/>
</svg>
