<svg width="8757" height="8757" viewBox="0 0 8757 8757" fill="none" xmlns="http://www.w3.org/2000/svg">
<path d="M476.379 1395.83C500.07 829.388 951.825 377.633 1518.26 353.942C2350.78 319.123 3542.41 277.049 4439.77 277.049C5337.13 277.049 6528.76 319.123 7361.28 353.942C7927.71 377.633 8379.47 829.388 8403.16 1395.83C8437.98 2228.34 8480.05 3419.98 8480.05 4317.34C8480.05 5214.7 8437.98 6406.34 8403.16 7238.86C8379.47 7805.29 7927.71 8257.05 7361.28 8280.74C6528.76 8315.56 5337.13 8357.63 4439.77 8357.63C3542.41 8357.63 2350.78 8315.56 1518.26 8280.74C951.825 8257.05 500.07 7805.29 476.379 7238.86C441.56 6406.34 399.486 5214.7 399.486 4317.34C399.486 3419.98 441.56 2228.34 476.379 1395.83Z" fill="#F8FFF9" stroke="#325134" stroke-width="552.919"/>
<path d="M474.589 1516.33C498.215 949.894 949.845 498.264 1516.28 474.638C2335.45 440.47 3500.16 399.535 4378.55 399.535C5256.95 399.535 6421.65 440.47 7240.82 474.638C7807.26 498.264 8258.89 949.894 8282.52 1516.33C8316.68 2335.5 8357.62 3500.21 8357.62 4378.61C8357.62 5257.01 8316.68 6421.72 8282.52 7240.89C8258.89 7807.33 7807.26 8258.96 7240.82 8282.58C6421.65 8316.75 5256.95 8357.68 4378.55 8357.68C3500.16 8357.68 2335.45 8316.75 1516.28 8282.58C949.845 8258.96 498.215 7807.33 474.589 7240.89C440.421 6421.72 399.486 5257.01 399.486 4378.61C399.486 3500.21 440.421 2335.5 474.589 1516.33Z" stroke="#91AC93" stroke-width="552.919"/>
<path d="M355.682 1397.88C379.435 831.445 831.396 379.484 1397.83 355.731C2243.59 320.265 3462.18 277.049 4378.5 277.049C5294.82 277.049 6513.4 320.265 7359.17 355.731C7925.6 379.484 8377.56 831.445 8401.32 1397.88C8436.78 2243.64 8480 3462.23 8480 4378.56C8480 5294.88 8436.78 6513.47 8401.32 7359.23C8377.56 7925.67 7925.6 8377.63 7359.17 8401.38C6513.4 8436.85 5294.82 8480.07 4378.5 8480.07C3462.18 8480.07 2243.59 8436.85 1397.83 8401.38C831.396 8377.63 379.435 7925.67 355.682 7359.23C320.216 6513.47 277 5294.88 277 4378.56C277 3462.23 320.216 2243.64 355.682 1397.88Z" stroke="#065F46" stroke-width="552.919"/>
<path d="M1379 2052H4693" stroke="#C6DAC7" stroke-width="276.46" stroke-linecap="round"/>
<path d="M1379 3276.56H3337.92" stroke="#C6DAC7" stroke-width="276.46" stroke-linecap="round"/>
<path d="M1379 4501H7223" stroke="#C6DAC7" stroke-width="276.46" stroke-linecap="round"/>
<path d="M1379 5725H5997" stroke="#C6DAC7" stroke-width="276.46" stroke-linecap="round"/>
<path d="M1379 6950H6916" stroke="#C6DAC7" stroke-width="276.46" stroke-linecap="round"/>
<path d="M6391.15 3695.19L5111.33 2415.37L5751.24 1775.46C5857.26 1669.43 6029.16 1669.43 6135.18 1775.46L7031.06 2671.33C7137.08 2777.35 7137.08 2949.25 7031.06 3055.28L6391.15 3695.19Z" fill="#CE4454"/>
<rect x="3895.54" y="6190.79" width="1809.94" height="3257.89" transform="rotate(-135 3895.54 6190.79)" fill="#568167"/>
<path d="M2679.6 6510.86L2295.66 6126.91L2615.61 4911.08L3895.43 6190.9L2679.6 6510.86Z" fill="#FAEFD1"/>
<rect x="6199.15" y="3887.19" width="1809.94" height="271.491" transform="rotate(-135 6199.15 3887.19)" fill="#F9F9F9"/>
<path d="M2455.7 6350.81C2428.05 6323.16 2416.87 6284.11 2416.61 6239.17C2416.48 6217.56 2419.01 6198.08 2421.61 6184.08C2422.89 6177.22 2424.11 6172.05 2424.88 6169.03C2425.22 6167.7 2425.47 6166.82 2425.58 6166.42L2426.21 6164.39L2427 6161.39L2737.61 4981.06L5847.22 1871.45C5900.23 1818.44 5986.18 1818.44 6039.19 1871.45L6935.07 2767.32C6988.08 2820.33 6988.08 2906.28 6935.07 2959.29L3825.46 6068.9L2645.12 6379.52L2642.13 6380.3L2640.09 6380.94C2639.68 6381.06 2638.8 6381.3 2637.49 6381.64C2634.47 6382.41 2629.29 6383.63 2622.43 6384.91C2608.44 6387.51 2588.95 6390.04 2567.35 6389.91C2522.41 6389.64 2483.35 6378.46 2455.7 6350.81ZM2425.37 6167.07C2425.36 6167.1 2425.35 6167.13 2425.35 6167.16C2425.34 6167.19 2425.32 6167.24 2425.32 6167.25L2425.32 6167.25L2425.37 6167.07Z" stroke="black" stroke-opacity="0.1" stroke-width="271.491"/>
<path d="M2359.7 6446.65C2234.75 6321.7 2295.7 6126.7 2295.7 6126.7L2679.65 6510.64C2679.65 6510.64 2484.65 6571.6 2359.7 6446.65Z" fill="#325134"/>
</svg>
